<svg xmlns="http://www.w3.org/2000/svg" viewBox="0 0 80 80"><title>尊嘟假嘟</title><circle cx="40" cy="40" r="35" fill="#ffffff" fill-opacity=".72" stroke="#ffffff" stroke-opacity=".85"/><g transform="translate(16 16)" fill="none" stroke="#C98753" stroke-width="2.25" stroke-linecap="round" stroke-linejoin="round"><path d="M5 7h21q4 0 4 4v14q0 4-4 4H15l-8 6v-6H5q-3 0-3-4V11q0-4 3-4Z" fill="#FFF0D7"/><path d="M24 19h16q5 0 5 5v13q0 5-5 5h-4l-7 4v-4h-6q-4 0-4-4v-4"/><path d="M11 14q4-5 8-1 2 4-3 6v2M16 25h.1M32 26v7m0 5h.1"/></g></svg>
