<svg xmlns="http://www.w3.org/2000/svg" viewBox="0 0 80 80"><title>渡劫ing</title><circle cx="40" cy="40" r="35" fill="#ffffff" fill-opacity=".72" stroke="#ffffff" stroke-opacity=".85"/><g transform="translate(16 16)" fill="none" stroke="#8492B6" stroke-width="2.25" stroke-linecap="round" stroke-linejoin="round"><path d="M4 24q20-27 40 0-7-5-13 0-7-5-14 0-6-5-13 0Z" fill="#E9EDF8"/><path d="M24 24v14q0 9 7 6 3-1 3-5M7 34l-3 5m35-5-3 5M24 3v4M9 4l4 4m26-4-4 4"/><path d="m37 6-4 9h5l-3 6"/></g></svg>
